<svg width="80" height="54" viewBox="0 0 80 54" fill="none" xmlns="http://www.w3.org/2000/svg">
<path d="M12.8395 54H0V0H12.8395V4.20197H4.4737V49.798H12.8395V54Z" fill="#A6ACFB"/>
<path d="M80 54H67.1605V49.798H75.5272V4.20197H67.1605V0H80V54Z" fill="#A6ACFB"/>
<path d="M21.358 9.16386L20.1235 13.8522L31.2346 24.4174H14.3328L13.2099 28.6435H34.8148L36.2963 23.2435L21.358 9.16386Z" fill="#A6ACFB"/>
<path d="M58.8889 43.897L60.1235 39.2087L49.0123 28.6435L65.9141 28.6435L67.037 24.4174L45.4321 24.4174L43.9506 29.8174L58.8889 43.897Z" fill="#A6ACFB"/>
<path d="M42.7161 8.21739L32.5926 45.7826H37.284L47.4074 8.21739H42.7161Z" fill="#A6ACFB"/>
</svg>
