<svg width="1109" height="267" viewBox="0 0 1109 267" fill="none" xmlns="http://www.w3.org/2000/svg">
  <path d="M23.832 44.92L3.24 36.616V31.48L23.832 23.176V26.872L6.792 33.544V34.552L23.832 41.224V44.92ZM26.7338 54.184V53.704L40.7978 13H44.7818V13.48L30.7178 54.184H26.7338Z" fill="#6C6967"/>
  <path d="M75.344 49.624C65.312 49.624 58.4 42.184 58.4 32.2C58.4 22.312 65.36 14.776 75.392 14.776C82.64 14.776 87.824 18.808 90.128 24.088L86.816 25.864C85.28 21.832 81.152 18.376 75.392 18.376C67.712 18.376 62.336 24.232 62.336 32.2C62.336 40.264 67.712 46.024 75.392 46.024C80.768 46.024 85.712 42.76 87.248 37.192L90.704 38.92C88.592 45.16 82.736 49.624 75.344 49.624ZM96.965 49V24.52H100.709V29.656H101.717C102.341 27.832 104.501 24.04 109.877 24.04V28.12H109.445C103.397 28.12 100.757 32.44 100.757 37.144V49H96.965ZM124.955 49.624C117.515 49.624 112.811 44.104 112.811 36.52C112.811 28.648 118.379 23.896 124.811 23.896C132.299 23.896 136.667 29.512 136.283 36.28L136.187 37.96H116.555C117.035 42.856 119.867 46.216 124.955 46.216C128.267 46.216 130.859 44.872 132.587 42.04L135.419 43.864C133.547 47.32 129.755 49.624 124.955 49.624ZM116.651 34.6H132.587C132.587 30.424 129.323 27.208 124.811 27.208C120.059 27.208 117.275 30.424 116.651 34.6ZM149.835 49.624C144.411 49.624 140.859 46.36 140.859 41.752C140.859 37.144 144.459 34.12 149.739 34.12H158.091V33.352C158.091 30.04 155.739 27.208 151.467 27.208C147.675 27.208 145.563 29.608 145.179 31.912L141.867 30.952C142.779 26.776 146.331 23.896 151.467 23.896C158.331 23.896 161.835 28.408 161.835 33.352V44.632C161.835 45.544 162.267 45.832 163.035 45.832H163.851V49H162.315C159.771 49 158.571 47.416 158.571 45.496V44.584H157.611C156.747 47.608 154.011 49.624 149.835 49.624ZM144.651 41.752C144.651 44.728 147.339 46.36 150.267 46.36C156.075 46.36 158.091 41.848 158.091 38.104V37.384H150.075C146.379 37.384 144.651 39.256 144.651 41.752ZM176.833 49C173.617 49 170.977 46.936 170.977 42.952V27.688H166.753V24.52H171.073V18.952H174.721V24.52H182.401V27.688H174.721V42.952C174.721 44.92 175.921 45.688 177.409 45.688H182.065V49H176.833ZM198.408 49.624C190.968 49.624 186.264 44.104 186.264 36.52C186.264 28.648 191.832 23.896 198.264 23.896C205.752 23.896 210.12 29.512 209.736 36.28L209.64 37.96H190.008C190.488 42.856 193.32 46.216 198.408 46.216C201.72 46.216 204.312 44.872 206.04 42.04L208.872 43.864C207 47.32 203.208 49.624 198.408 49.624ZM190.104 34.6H206.04C206.04 30.424 202.776 27.208 198.264 27.208C193.512 27.208 190.728 30.424 190.104 34.6ZM239.903 49.624C232.559 49.624 227.279 44.152 227.279 36.76C227.279 29.368 232.703 23.896 239.903 23.896C244.511 23.896 249.023 26.152 250.991 31.096L247.775 32.776C246.863 30.088 243.935 27.4 239.903 27.4C234.815 27.4 231.167 31.336 231.167 36.76C231.167 42.424 235.007 46.12 239.903 46.12C243.455 46.12 246.911 44.248 248.351 40.216L251.423 41.752C249.407 47.368 244.847 49.624 239.903 49.624ZM267.984 49.624C260.592 49.624 255.264 44.344 255.264 36.76C255.264 29.224 260.592 23.896 267.984 23.896C275.376 23.896 280.704 29.224 280.704 36.76C280.704 44.344 275.376 49.624 267.984 49.624ZM259.152 36.76C259.152 42.424 262.848 46.216 267.984 46.216C273.12 46.216 276.816 42.424 276.816 36.76C276.816 31.288 273.12 27.304 267.984 27.304C262.848 27.304 259.152 31.288 259.152 36.76ZM286.481 49V24.52H290.273V28.648H291.233C292.001 26.152 294.401 23.896 298.289 23.896C302.225 23.896 304.913 26.104 306.017 28.648H307.073C308.081 26.056 310.385 23.896 314.273 23.896C319.841 23.896 323.201 28.072 323.201 33.112V49H319.409V33.88C319.409 29.8 316.913 27.4 313.169 27.4C309.665 27.4 306.785 29.896 306.785 34.6V49H302.993V33.832C302.993 29.8 300.113 27.4 296.609 27.4C292.961 27.4 290.273 30.328 290.273 34.6V49H286.481ZM330.403 49V24.52H334.195V28.648H335.155C335.923 26.152 338.323 23.896 342.211 23.896C346.147 23.896 348.835 26.104 349.939 28.648H350.995C352.003 26.056 354.307 23.896 358.195 23.896C363.763 23.896 367.123 28.072 367.123 33.112V49H363.331V33.88C363.331 29.8 360.835 27.4 357.091 27.4C353.587 27.4 350.707 29.896 350.707 34.6V49H346.915V33.832C346.915 29.8 344.035 27.4 340.531 27.4C336.883 27.4 334.195 30.328 334.195 34.6V49H330.403ZM382.1 49.624C376.676 49.624 373.124 46.36 373.124 41.752C373.124 37.144 376.724 34.12 382.004 34.12H390.356V33.352C390.356 30.04 388.004 27.208 383.732 27.208C379.94 27.208 377.828 29.608 377.444 31.912L374.132 30.952C375.044 26.776 378.596 23.896 383.732 23.896C390.596 23.896 394.1 28.408 394.1 33.352V44.632C394.1 45.544 394.532 45.832 395.3 45.832H396.116V49H394.58C392.036 49 390.836 47.416 390.836 45.496V44.584H389.876C389.012 47.608 386.276 49.624 382.1 49.624ZM376.916 41.752C376.916 44.728 379.604 46.36 382.532 46.36C388.34 46.36 390.356 41.848 390.356 38.104V37.384H382.34C378.644 37.384 376.916 39.256 376.916 41.752ZM401.418 49V24.52H405.21V28.648H406.17C406.938 26.152 409.434 23.896 413.322 23.896C419.178 23.896 422.442 28.216 422.442 33.112V49H418.65V33.88C418.65 29.992 415.722 27.4 412.218 27.4C408.09 27.4 405.21 30.424 405.21 34.6V49H401.418ZM439.333 49.624C432.565 49.624 427.717 44.2 427.717 36.808C427.717 29.368 432.709 23.896 439.333 23.896C443.557 23.896 446.485 25.96 447.541 28.648H448.501V13H452.245V49H448.501V44.872H447.493C446.485 47.56 443.557 49.624 439.333 49.624ZM431.557 36.808C431.557 42.616 435.253 46.216 440.149 46.216C445.381 46.216 448.645 41.944 448.645 36.808C448.645 30.664 444.757 27.304 440.053 27.304C435.253 27.304 431.557 31.192 431.557 36.808ZM468.281 49.624C462.521 49.624 459.065 46.456 458.009 42.184L461.513 41.224C462.329 44.584 465.113 46.264 468.473 46.264C472.409 46.264 474.665 44.584 474.665 42.28C474.665 40.36 473.369 39.208 470.585 38.584L466.505 37.672C462.857 36.856 459.785 35.176 459.785 30.808C459.785 26.92 463.097 23.896 468.761 23.896C473.561 23.896 477.257 26.488 478.217 30.856L474.809 31.816C474.329 29.032 471.929 27.208 468.761 27.208C465.449 27.208 463.289 28.792 463.289 30.808C463.289 32.728 464.729 33.736 467.417 34.36L471.545 35.32C475.385 36.232 478.313 38.152 478.313 42.28C478.313 46.648 474.281 49.624 468.281 49.624ZM506.741 49.624C501.317 49.624 497.765 46.36 497.765 41.752C497.765 37.144 501.365 34.12 506.645 34.12H514.997V33.352C514.997 30.04 512.645 27.208 508.373 27.208C504.581 27.208 502.469 29.608 502.085 31.912L498.773 30.952C499.685 26.776 503.237 23.896 508.373 23.896C515.237 23.896 518.741 28.408 518.741 33.352V44.632C518.741 45.544 519.173 45.832 519.941 45.832H520.757V49H519.221C516.677 49 515.477 47.416 515.477 45.496V44.584H514.517C513.653 47.608 510.917 49.624 506.741 49.624ZM501.557 41.752C501.557 44.728 504.245 46.36 507.173 46.36C512.981 46.36 514.997 41.848 514.997 38.104V37.384H506.981C503.285 37.384 501.557 39.256 501.557 41.752ZM526.059 49V24.52H529.851V28.648H530.811C531.579 26.152 534.075 23.896 537.963 23.896C543.819 23.896 547.083 28.216 547.083 33.112V49H543.291V33.88C543.291 29.992 540.363 27.4 536.859 27.4C532.731 27.4 529.851 30.424 529.851 34.6V49H526.059ZM563.974 49.624C557.206 49.624 552.358 44.2 552.358 36.808C552.358 29.368 557.35 23.896 563.974 23.896C568.198 23.896 571.126 25.96 572.182 28.648H573.142V13H576.885V49H573.142V44.872H572.134C571.126 47.56 568.198 49.624 563.974 49.624ZM556.198 36.808C556.198 42.616 559.894 46.216 564.79 46.216C570.022 46.216 573.286 41.944 573.286 36.808C573.286 30.664 569.398 27.304 564.694 27.304C559.894 27.304 556.198 31.192 556.198 36.808ZM606.609 49.624C600.85 49.624 597.394 46.456 596.338 42.184L599.842 41.224C600.658 44.584 603.442 46.264 606.802 46.264C610.738 46.264 612.994 44.584 612.994 42.28C612.994 40.36 611.698 39.208 608.914 38.584L604.834 37.672C601.186 36.856 598.114 35.176 598.114 30.808C598.114 26.92 601.426 23.896 607.09 23.896C611.89 23.896 615.586 26.488 616.546 30.856L613.138 31.816C612.658 29.032 610.258 27.208 607.09 27.208C603.778 27.208 601.618 28.792 601.618 30.808C601.618 32.728 603.058 33.736 605.746 34.36L609.874 35.32C613.714 36.232 616.642 38.152 616.642 42.28C616.642 46.648 612.61 49.624 606.609 49.624ZM631.286 49C628.07 49 625.43 46.936 625.43 42.952V27.688H621.206V24.52H625.526V18.952H629.174V24.52H636.854V27.688H629.174V42.952C629.174 44.92 630.374 45.688 631.862 45.688H636.518V49H631.286ZM650.413 49.624C644.989 49.624 641.437 46.36 641.437 41.752C641.437 37.144 645.037 34.12 650.317 34.12H658.669V33.352C658.669 30.04 656.317 27.208 652.045 27.208C648.253 27.208 646.141 29.608 645.757 31.912L642.445 30.952C643.357 26.776 646.909 23.896 652.045 23.896C658.909 23.896 662.413 28.408 662.413 33.352V44.632C662.413 45.544 662.845 45.832 663.613 45.832H664.429V49H662.893C660.349 49 659.149 47.416 659.149 45.496V44.584H658.189C657.325 47.608 654.589 49.624 650.413 49.624ZM645.229 41.752C645.229 44.728 647.917 46.36 650.845 46.36C656.653 46.36 658.669 41.848 658.669 38.104V37.384H650.653C646.957 37.384 645.229 39.256 645.229 41.752ZM669.731 49V24.52H673.523V28.648H674.483C675.251 26.152 677.747 23.896 681.635 23.896C687.491 23.896 690.755 28.216 690.755 33.112V49H686.963V33.88C686.963 29.992 684.035 27.4 680.531 27.4C676.403 27.4 673.523 30.424 673.523 34.6V49H669.731ZM707.645 49.624C700.877 49.624 696.029 44.2 696.029 36.808C696.029 29.368 701.021 23.896 707.645 23.896C711.869 23.896 714.797 25.96 715.853 28.648H716.813V13H720.557V49H716.813V44.872H715.805C714.797 47.56 711.869 49.624 707.645 49.624ZM699.869 36.808C699.869 42.616 703.565 46.216 708.461 46.216C713.693 46.216 716.957 41.944 716.957 36.808C716.957 30.664 713.069 27.304 708.365 27.304C703.565 27.304 699.869 31.192 699.869 36.808ZM735.538 49.624C730.114 49.624 726.562 46.36 726.562 41.752C726.562 37.144 730.162 34.12 735.442 34.12H743.794V33.352C743.794 30.04 741.442 27.208 737.17 27.208C733.378 27.208 731.266 29.608 730.882 31.912L727.57 30.952C728.482 26.776 732.034 23.896 737.17 23.896C744.034 23.896 747.538 28.408 747.538 33.352V44.632C747.538 45.544 747.97 45.832 748.738 45.832H749.554V49H748.018C745.474 49 744.274 47.416 744.274 45.496V44.584H743.314C742.45 47.608 739.714 49.624 735.538 49.624ZM730.354 41.752C730.354 44.728 733.042 46.36 735.97 46.36C741.778 46.36 743.794 41.848 743.794 38.104V37.384H735.778C732.082 37.384 730.354 39.256 730.354 41.752ZM754.856 49V24.52H758.6V29.656H759.608C760.232 27.832 762.392 24.04 767.768 24.04V28.12H767.336C761.288 28.12 758.648 32.44 758.648 37.144V49H754.856ZM782.317 49.624C775.549 49.624 770.701 44.2 770.701 36.808C770.701 29.368 775.693 23.896 782.317 23.896C786.541 23.896 789.469 25.96 790.525 28.648H791.485V13H795.229V49H791.485V44.872H790.477C789.469 47.56 786.541 49.624 782.317 49.624ZM774.541 36.808C774.541 42.616 778.237 46.216 783.133 46.216C788.365 46.216 791.629 41.944 791.629 36.808C791.629 30.664 787.741 27.304 783.037 27.304C778.237 27.304 774.541 31.192 774.541 36.808ZM811.266 49.624C805.506 49.624 802.05 46.456 800.994 42.184L804.498 41.224C805.314 44.584 808.098 46.264 811.458 46.264C815.394 46.264 817.65 44.584 817.65 42.28C817.65 40.36 816.354 39.208 813.57 38.584L809.49 37.672C805.842 36.856 802.77 35.176 802.77 30.808C802.77 26.92 806.082 23.896 811.746 23.896C816.546 23.896 820.242 26.488 821.202 30.856L817.794 31.816C817.314 29.032 814.914 27.208 811.746 27.208C808.434 27.208 806.274 28.792 806.274 30.808C806.274 32.728 807.714 33.736 810.402 34.36L814.53 35.32C818.37 36.232 821.298 38.152 821.298 42.28C821.298 46.648 817.266 49.624 811.266 49.624Z" fill="white"/>
  <path d="M841.32 48.56V43.632L864.04 34.736V33.392L841.32 24.496V19.568L868.776 30.64V37.488L841.32 48.56Z" fill="#6C6967"/>
  <path d="M148.782 164.656C150.195 161.877 153.049 160.127 156.167 160.127H577.291C583.476 160.127 587.48 166.658 584.676 172.17L577.531 186.216C576.117 188.995 573.263 190.745 570.145 190.745H149.022C142.837 190.745 138.832 184.215 141.636 178.702L148.782 164.656Z" fill="#9CA2FA"/>
  <path d="M136.321 202.784C137.735 200.005 140.589 198.255 143.706 198.255H888.329C894.514 198.255 898.519 204.785 895.715 210.298L888.57 224.344C887.156 227.123 884.302 228.873 881.184 228.873H136.561C130.376 228.873 126.371 222.342 129.176 216.829L136.321 202.784Z" fill="#FE856B"/>
  <path d="M66.9767 244.668C66.9767 240.092 70.6866 236.382 75.2629 236.382H111.738C114.856 236.382 117.71 238.132 119.123 240.911L126.269 254.957C129.073 260.469 125.068 267 118.883 267H75.2629C70.6866 267 66.9767 263.29 66.9767 258.714V244.668Z" fill="#76A563"/>
  <path d="M16.8566 123.775C18.1406 120.681 21.1605 118.665 24.5097 118.665H610.19C616.098 118.665 620.108 124.671 617.843 130.128L609.244 150.843C607.961 153.937 604.941 155.953 601.591 155.953H15.9111C10.003 155.953 5.99301 149.947 8.25797 144.49L16.8566 123.775Z" fill="#F4E144"/>
  <path d="M635.958 123.775C637.242 120.681 640.262 118.665 643.611 118.665H966.173C972.081 118.665 976.091 124.671 973.826 130.128L965.228 150.843C963.944 153.937 960.924 155.953 957.575 155.953H635.012C629.104 155.953 625.094 149.947 627.359 144.49L635.958 123.775Z" fill="#C76CD8"/>
  <path d="M1105.5 126.951C1105.5 122.375 1101.79 118.665 1097.21 118.665H999.594C996.245 118.665 993.225 120.681 991.941 123.775L983.342 144.49C981.077 149.947 985.087 155.953 990.995 155.953H1097.21C1101.79 155.953 1105.5 152.243 1105.5 147.667V126.951Z" fill="#FF5D5D"/>
</svg>
