<svg width="1109" height="267" viewBox="0 0 1109 267" fill="none" xmlns="http://www.w3.org/2000/svg">
<g clip-path="url(#clip0_152_123)">
<rect width="1109" height="267" fill="#181818"/>
<path d="M23.8347 44.92L3.24269 36.616V31.48L23.8347 23.176V26.872L6.79469 33.544V34.552L23.8347 41.224V44.92ZM26.7364 54.184V53.704L40.8004 13H44.7844V13.48L30.7204 54.184H26.7364Z" fill="#6C6967"/>
<path d="M75.3467 49.624C65.3147 49.624 58.4027 42.184 58.4027 32.2C58.4027 22.312 65.3627 14.776 75.3947 14.776C82.6427 14.776 87.8267 18.808 90.1307 24.088L86.8187 25.864C85.2827 21.832 81.1547 18.376 75.3947 18.376C67.7147 18.376 62.3387 24.232 62.3387 32.2C62.3387 40.264 67.7147 46.024 75.3947 46.024C80.7707 46.024 85.7147 42.76 87.2507 37.192L90.7067 38.92C88.5947 45.16 82.7387 49.624 75.3467 49.624ZM96.9677 49V24.52H100.712V29.656H101.72C102.344 27.832 104.504 24.04 109.88 24.04V28.12H109.448C103.4 28.12 100.76 32.44 100.76 37.144V49H96.9677ZM124.957 49.624C117.517 49.624 112.813 44.104 112.813 36.52C112.813 28.648 118.381 23.896 124.813 23.896C132.301 23.896 136.669 29.512 136.285 36.28L136.189 37.96H116.557C117.037 42.856 119.869 46.216 124.957 46.216C128.269 46.216 130.861 44.872 132.589 42.04L135.421 43.864C133.549 47.32 129.757 49.624 124.957 49.624ZM116.653 34.6H132.589C132.589 30.424 129.325 27.208 124.813 27.208C120.061 27.208 117.277 30.424 116.653 34.6ZM149.837 49.624C144.413 49.624 140.861 46.36 140.861 41.752C140.861 37.144 144.461 34.12 149.741 34.12H158.093V33.352C158.093 30.04 155.741 27.208 151.469 27.208C147.677 27.208 145.565 29.608 145.181 31.912L141.869 30.952C142.781 26.776 146.333 23.896 151.469 23.896C158.333 23.896 161.837 28.408 161.837 33.352V44.632C161.837 45.544 162.269 45.832 163.037 45.832H163.853V49H162.317C159.773 49 158.573 47.416 158.573 45.496V44.584H157.613C156.749 47.608 154.013 49.624 149.837 49.624ZM144.653 41.752C144.653 44.728 147.341 46.36 150.269 46.36C156.077 46.36 158.093 41.848 158.093 38.104V37.384H150.077C146.381 37.384 144.653 39.256 144.653 41.752ZM176.835 49C173.619 49 170.979 46.936 170.979 42.952V27.688H166.755V24.52H171.075V18.952H174.723V24.52H182.403V27.688H174.723V42.952C174.723 44.92 175.923 45.688 177.411 45.688H182.067V49H176.835ZM198.41 49.624C190.97 49.624 186.266 44.104 186.266 36.52C186.266 28.648 191.834 23.896 198.266 23.896C205.754 23.896 210.122 29.512 209.738 36.28L209.642 37.96H190.01C190.49 42.856 193.322 46.216 198.41 46.216C201.722 46.216 204.314 44.872 206.042 42.04L208.874 43.864C207.002 47.32 203.21 49.624 198.41 49.624ZM190.106 34.6H206.042C206.042 30.424 202.778 27.208 198.266 27.208C193.514 27.208 190.73 30.424 190.106 34.6ZM229.202 49V24.52H232.946V29.656H233.954C234.578 27.832 236.738 24.04 242.114 24.04V28.12H241.682C235.634 28.12 232.994 32.44 232.994 37.144V49H229.202ZM257.192 49.624C249.752 49.624 245.048 44.104 245.048 36.52C245.048 28.648 250.616 23.896 257.048 23.896C264.536 23.896 268.904 29.512 268.52 36.28L268.424 37.96H248.792C249.272 42.856 252.104 46.216 257.192 46.216C260.504 46.216 263.096 44.872 264.824 42.04L267.656 43.864C265.784 47.32 261.992 49.624 257.192 49.624ZM248.888 34.6H264.824C264.824 30.424 261.56 27.208 257.048 27.208C252.296 27.208 249.512 30.424 248.888 34.6ZM285 49.624C277.656 49.624 272.376 44.152 272.376 36.76C272.376 29.368 277.8 23.896 285 23.896C289.608 23.896 294.12 26.152 296.088 31.096L292.872 32.776C291.96 30.088 289.032 27.4 285 27.4C279.912 27.4 276.264 31.336 276.264 36.76C276.264 42.424 280.104 46.12 285 46.12C288.552 46.12 292.008 44.248 293.448 40.216L296.52 41.752C294.504 47.368 289.944 49.624 285 49.624ZM302.328 49V24.52H306.12V49H302.328ZM302.328 19.864V14.968H306.072V19.864H302.328ZM326.915 23.896C333.635 23.896 338.339 29.32 338.339 36.712C338.339 44.152 333.539 49.624 326.915 49.624C322.739 49.624 319.715 47.56 318.515 44.872H317.555V59.08H313.811V24.52H317.555V28.648H318.563C319.715 25.96 322.691 23.896 326.915 23.896ZM317.411 36.712C317.411 42.856 321.299 46.216 326.003 46.216C330.803 46.216 334.499 42.376 334.499 36.712C334.499 30.952 330.803 27.304 325.907 27.304C320.675 27.304 317.411 31.576 317.411 36.712ZM354.317 49.624C346.877 49.624 342.173 44.104 342.173 36.52C342.173 28.648 347.741 23.896 354.173 23.896C361.661 23.896 366.029 29.512 365.645 36.28L365.549 37.96H345.917C346.397 42.856 349.229 46.216 354.317 46.216C357.629 46.216 360.221 44.872 361.949 42.04L364.781 43.864C362.909 47.32 359.117 49.624 354.317 49.624ZM346.013 34.6H361.949C361.949 30.424 358.685 27.208 354.173 27.208C349.421 27.208 346.637 30.424 346.013 34.6ZM380.253 49.624C374.493 49.624 371.037 46.456 369.981 42.184L373.485 41.224C374.301 44.584 377.085 46.264 380.445 46.264C384.381 46.264 386.637 44.584 386.637 42.28C386.637 40.36 385.341 39.208 382.557 38.584L378.477 37.672C374.829 36.856 371.757 35.176 371.757 30.808C371.757 26.92 375.069 23.896 380.733 23.896C385.533 23.896 389.229 26.488 390.189 30.856L386.781 31.816C386.301 29.032 383.901 27.208 380.733 27.208C377.421 27.208 375.261 28.792 375.261 30.808C375.261 32.728 376.701 33.736 379.389 34.36L383.517 35.32C387.357 36.232 390.285 38.152 390.285 42.28C390.285 46.648 386.253 49.624 380.253 49.624ZM418.712 49.624C413.288 49.624 409.736 46.36 409.736 41.752C409.736 37.144 413.336 34.12 418.616 34.12H426.968V33.352C426.968 30.04 424.616 27.208 420.344 27.208C416.552 27.208 414.44 29.608 414.056 31.912L410.744 30.952C411.656 26.776 415.208 23.896 420.344 23.896C427.208 23.896 430.712 28.408 430.712 33.352V44.632C430.712 45.544 431.144 45.832 431.912 45.832H432.728V49H431.192C428.648 49 427.448 47.416 427.448 45.496V44.584H426.488C425.624 47.608 422.888 49.624 418.712 49.624ZM413.528 41.752C413.528 44.728 416.216 46.36 419.144 46.36C424.952 46.36 426.968 41.848 426.968 38.104V37.384H418.952C415.256 37.384 413.528 39.256 413.528 41.752ZM438.03 49V24.52H441.822V28.648H442.782C443.55 26.152 446.046 23.896 449.934 23.896C455.79 23.896 459.054 28.216 459.054 33.112V49H455.262V33.88C455.262 29.992 452.334 27.4 448.83 27.4C444.702 27.4 441.822 30.424 441.822 34.6V49H438.03ZM475.945 49.624C469.177 49.624 464.329 44.2 464.329 36.808C464.329 29.368 469.321 23.896 475.945 23.896C480.169 23.896 483.097 25.96 484.153 28.648H485.113V13H488.857V49H485.113V44.872H484.105C483.097 47.56 480.169 49.624 475.945 49.624ZM468.169 36.808C468.169 42.616 471.865 46.216 476.761 46.216C481.993 46.216 485.257 41.944 485.257 36.808C485.257 30.664 481.369 27.304 476.665 27.304C471.865 27.304 468.169 31.192 468.169 36.808ZM518.581 49.624C512.821 49.624 509.365 46.456 508.309 42.184L511.813 41.224C512.629 44.584 515.413 46.264 518.773 46.264C522.709 46.264 524.965 44.584 524.965 42.28C524.965 40.36 523.669 39.208 520.885 38.584L516.805 37.672C513.157 36.856 510.085 35.176 510.085 30.808C510.085 26.92 513.397 23.896 519.061 23.896C523.861 23.896 527.557 26.488 528.517 30.856L525.109 31.816C524.629 29.032 522.229 27.208 519.061 27.208C515.749 27.208 513.589 28.792 513.589 30.808C513.589 32.728 515.029 33.736 517.717 34.36L521.845 35.32C525.685 36.232 528.613 38.152 528.613 42.28C528.613 46.648 524.581 49.624 518.581 49.624ZM543.257 49C540.041 49 537.401 46.936 537.401 42.952V27.688H533.177V24.52H537.497V18.952H541.145V24.52H548.825V27.688H541.145V42.952C541.145 44.92 542.345 45.688 543.833 45.688H548.489V49H543.257ZM562.384 49.624C556.96 49.624 553.408 46.36 553.408 41.752C553.408 37.144 557.008 34.12 562.288 34.12H570.64V33.352C570.64 30.04 568.288 27.208 564.016 27.208C560.224 27.208 558.112 29.608 557.728 31.912L554.416 30.952C555.328 26.776 558.88 23.896 564.016 23.896C570.88 23.896 574.384 28.408 574.384 33.352V44.632C574.384 45.544 574.816 45.832 575.584 45.832H576.4V49H574.864C572.32 49 571.12 47.416 571.12 45.496V44.584H570.16C569.296 47.608 566.56 49.624 562.384 49.624ZM557.2 41.752C557.2 44.728 559.888 46.36 562.816 46.36C568.624 46.36 570.64 41.848 570.64 38.104V37.384H562.624C558.928 37.384 557.2 39.256 557.2 41.752ZM581.702 49V24.52H585.494V28.648H586.454C587.222 26.152 589.718 23.896 593.606 23.896C599.462 23.896 602.726 28.216 602.726 33.112V49H598.934V33.88C598.934 29.992 596.006 27.4 592.502 27.4C588.374 27.4 585.494 30.424 585.494 34.6V49H581.702ZM619.617 49.624C612.849 49.624 608.001 44.2 608.001 36.808C608.001 29.368 612.993 23.896 619.617 23.896C623.841 23.896 626.769 25.96 627.825 28.648H628.785V13H632.529V49H628.785V44.872H627.777C626.769 47.56 623.841 49.624 619.617 49.624ZM611.841 36.808C611.841 42.616 615.537 46.216 620.433 46.216C625.665 46.216 628.929 41.944 628.929 36.808C628.929 30.664 625.041 27.304 620.337 27.304C615.537 27.304 611.841 31.192 611.841 36.808ZM647.509 49.624C642.085 49.624 638.533 46.36 638.533 41.752C638.533 37.144 642.133 34.12 647.413 34.12H655.765V33.352C655.765 30.04 653.413 27.208 649.141 27.208C645.349 27.208 643.237 29.608 642.853 31.912L639.541 30.952C640.453 26.776 644.005 23.896 649.141 23.896C656.005 23.896 659.509 28.408 659.509 33.352V44.632C659.509 45.544 659.941 45.832 660.709 45.832H661.525V49H659.989C657.445 49 656.245 47.416 656.245 45.496V44.584H655.285C654.421 47.608 651.685 49.624 647.509 49.624ZM642.325 41.752C642.325 44.728 645.013 46.36 647.941 46.36C653.749 46.36 655.765 41.848 655.765 38.104V37.384H647.749C644.053 37.384 642.325 39.256 642.325 41.752ZM666.827 49V24.52H670.571V29.656H671.579C672.203 27.832 674.363 24.04 679.739 24.04V28.12H679.307C673.259 28.12 670.619 32.44 670.619 37.144V49H666.827ZM694.289 49.624C687.521 49.624 682.673 44.2 682.673 36.808C682.673 29.368 687.665 23.896 694.289 23.896C698.513 23.896 701.441 25.96 702.497 28.648H703.457V13H707.201V49H703.457V44.872H702.449C701.441 47.56 698.513 49.624 694.289 49.624ZM686.513 36.808C686.513 42.616 690.209 46.216 695.105 46.216C700.337 46.216 703.601 41.944 703.601 36.808C703.601 30.664 699.713 27.304 695.009 27.304C690.209 27.304 686.513 31.192 686.513 36.808ZM723.237 49.624C717.477 49.624 714.021 46.456 712.965 42.184L716.469 41.224C717.285 44.584 720.069 46.264 723.429 46.264C727.365 46.264 729.621 44.584 729.621 42.28C729.621 40.36 728.325 39.208 725.541 38.584L721.461 37.672C717.813 36.856 714.741 35.176 714.741 30.808C714.741 26.92 718.053 23.896 723.717 23.896C728.517 23.896 732.213 26.488 733.173 30.856L729.765 31.816C729.285 29.032 726.885 27.208 723.717 27.208C720.405 27.208 718.245 28.792 718.245 30.808C718.245 32.728 719.685 33.736 722.373 34.36L726.501 35.32C730.341 36.232 733.269 38.152 733.269 42.28C733.269 46.648 729.237 49.624 723.237 49.624Z" fill="white"/>
<path d="M745.323 48.56V43.632L768.043 34.736V33.392L745.323 24.496V19.568L772.779 30.64V37.488L745.323 48.56Z" fill="#6C6967"/>
<path d="M148.782 164.656C150.195 161.877 153.049 160.127 156.167 160.127H577.291C583.476 160.127 587.48 166.658 584.676 172.17L577.531 186.216C576.117 188.995 573.263 190.745 570.145 190.745H149.022C142.837 190.745 138.832 184.215 141.636 178.702L148.782 164.656Z" fill="#9CA2FA"/>
<path d="M136.321 202.784C137.735 200.005 140.589 198.255 143.706 198.255H888.329C894.514 198.255 898.519 204.785 895.715 210.298L888.569 224.344C887.156 227.123 884.302 228.873 881.184 228.873H136.561C130.376 228.873 126.371 222.342 129.176 216.829L136.321 202.784Z" fill="#FE856B"/>
<path d="M66.9767 244.668C66.9767 240.092 70.6866 236.382 75.2629 236.382H111.738C114.856 236.382 117.71 238.132 119.123 240.911L126.269 254.957C129.073 260.469 125.068 267 118.883 267H75.2629C70.6866 267 66.9767 263.29 66.9767 258.714V244.668Z" fill="#76A563"/>
<path d="M16.8566 123.775C18.1406 120.681 21.1605 118.665 24.5097 118.665H610.19C616.098 118.665 620.108 124.671 617.843 130.128L609.244 150.843C607.96 153.937 604.941 155.953 601.591 155.953H15.9111C10.003 155.953 5.99301 149.947 8.25797 144.49L16.8566 123.775Z" fill="#F4E144"/>
<path d="M635.958 123.775C637.242 120.681 640.262 118.665 643.611 118.665H966.173C972.081 118.665 976.091 124.671 973.826 130.128L965.228 150.843C963.944 153.937 960.924 155.953 957.575 155.953H635.012C629.104 155.953 625.094 149.947 627.359 144.49L635.958 123.775Z" fill="#C76CD8"/>
<path d="M1105.5 126.951C1105.5 122.375 1101.79 118.665 1097.21 118.665H999.594C996.245 118.665 993.225 120.681 991.941 123.775L983.342 144.49C981.077 149.947 985.087 155.953 990.995 155.953H1097.21C1101.79 155.953 1105.5 152.243 1105.5 147.667V126.951Z" fill="#FF5D5D"/>
</g>
<defs>
<clipPath id="clip0_152_123">
<rect width="1109" height="267" fill="white"/>
</clipPath>
</defs>
</svg>
