<svg width="1109" height="267" viewBox="0 0 1109 267" fill="none" xmlns="http://www.w3.org/2000/svg">
<g clip-path="url(#clip0_152_305)">
<rect width="1109" height="267" fill="#181818"/>
<path d="M23.8347 44.92L3.24269 36.616V31.48L23.8347 23.176V26.872L6.79469 33.544V34.552L23.8347 41.224V44.92ZM26.7364 54.184V53.704L40.8004 13H44.7844V13.48L30.7204 54.184H26.7364Z" fill="#6C6967"/>
<path d="M59.1227 49V45.592H62.4827V18.808H59.1227V15.4H72.1787C82.8347 15.4 89.5067 22.648 89.5067 32.2C89.5067 42.424 82.8347 49 72.1787 49H59.1227ZM66.3707 45.496H71.9387C80.5787 45.496 85.5707 40.504 85.5707 32.2C85.5707 24.232 80.5787 18.904 71.9387 18.904H66.3707V45.496ZM95.8438 49V24.52H99.6358V49H95.8438ZM95.8438 19.864V14.968H99.5878V19.864H95.8438ZM116.159 49.624C110.399 49.624 106.943 46.456 105.887 42.184L109.391 41.224C110.207 44.584 112.991 46.264 116.351 46.264C120.287 46.264 122.543 44.584 122.543 42.28C122.543 40.36 121.247 39.208 118.463 38.584L114.383 37.672C110.735 36.856 107.663 35.176 107.663 30.808C107.663 26.92 110.975 23.896 116.639 23.896C121.439 23.896 125.135 26.488 126.095 30.856L122.687 31.816C122.207 29.032 119.807 27.208 116.639 27.208C113.327 27.208 111.167 28.792 111.167 30.808C111.167 32.728 112.607 33.736 115.295 34.36L119.423 35.32C123.263 36.232 126.191 38.152 126.191 42.28C126.191 46.648 122.159 49.624 116.159 49.624ZM140.835 49C137.619 49 134.979 46.936 134.979 42.952V27.688H130.755V24.52H135.075V18.952H138.723V24.52H146.403V27.688H138.723V42.952C138.723 44.92 139.923 45.688 141.411 45.688H146.067V49H140.835ZM152.186 49V24.52H155.93V29.656H156.938C157.562 27.832 159.722 24.04 165.098 24.04V28.12H164.666C158.618 28.12 155.978 32.44 155.978 37.144V49H152.186ZM170.469 49V24.52H174.261V49H170.469ZM170.469 19.864V14.968H174.213V19.864H170.469ZM195.008 49.624C190.832 49.624 187.856 47.56 186.704 44.872H185.696V49H181.952V13H185.696V28.648H186.656C187.856 25.96 190.88 23.896 195.008 23.896C201.68 23.896 206.48 29.368 206.48 36.808C206.48 44.2 201.776 49.624 195.008 49.624ZM185.552 36.808C185.552 41.944 188.816 46.216 194.048 46.216C198.944 46.216 202.64 42.616 202.64 36.808C202.64 31.192 198.944 27.304 194.144 27.304C189.44 27.304 185.552 30.664 185.552 36.808ZM220.873 49.624C215.065 49.624 211.753 45.304 211.753 40.408V24.52H215.545V39.64C215.545 43.864 218.473 46.12 221.977 46.12C226.105 46.12 228.985 43.096 228.985 38.92V24.52H232.777V49H228.985V44.872H228.025C227.017 47.896 224.761 49.624 220.873 49.624ZM247.663 49C244.447 49 241.807 46.936 241.807 42.952V27.688H237.583V24.52H241.903V18.952H245.551V24.52H253.231V27.688H245.551V42.952C245.551 44.92 246.751 45.688 248.239 45.688H252.895V49H247.663ZM269.239 49.624C261.799 49.624 257.095 44.104 257.095 36.52C257.095 28.648 262.663 23.896 269.095 23.896C276.583 23.896 280.951 29.512 280.567 36.28L280.471 37.96H260.839C261.319 42.856 264.151 46.216 269.239 46.216C272.551 46.216 275.143 44.872 276.871 42.04L279.703 43.864C277.831 47.32 274.039 49.624 269.239 49.624ZM260.935 34.6H276.871C276.871 30.424 273.607 27.208 269.095 27.208C264.343 27.208 261.559 30.424 260.935 34.6ZM306.606 49L297.39 25V24.52H301.278L309.294 45.832H310.302L318.51 24.52H322.494V25L312.942 49L308.958 59.08H305.07V58.6L308.862 49H306.606ZM337.877 49.624C330.485 49.624 325.157 44.344 325.157 36.76C325.157 29.224 330.485 23.896 337.877 23.896C345.269 23.896 350.597 29.224 350.597 36.76C350.597 44.344 345.269 49.624 337.877 49.624ZM329.045 36.76C329.045 42.424 332.741 46.216 337.877 46.216C343.013 46.216 346.709 42.424 346.709 36.76C346.709 31.288 343.013 27.304 337.877 27.304C332.741 27.304 329.045 31.288 329.045 36.76ZM365.014 49.624C359.206 49.624 355.894 45.304 355.894 40.408V24.52H359.686V39.64C359.686 43.864 362.614 46.12 366.118 46.12C370.246 46.12 373.126 43.096 373.126 38.92V24.52H376.918V49H373.126V44.872H372.166C371.158 47.896 368.902 49.624 365.014 49.624ZM384.124 49V24.52H387.868V29.656H388.876C389.5 27.832 391.66 24.04 397.036 24.04V28.12H396.604C390.556 28.12 387.916 32.44 387.916 37.144V49H384.124ZM426.75 49.624C419.406 49.624 414.126 44.152 414.126 36.76C414.126 29.368 419.55 23.896 426.75 23.896C431.358 23.896 435.87 26.152 437.838 31.096L434.622 32.776C433.71 30.088 430.782 27.4 426.75 27.4C421.662 27.4 418.014 31.336 418.014 36.76C418.014 42.424 421.854 46.12 426.75 46.12C430.302 46.12 433.758 44.248 435.198 40.216L438.27 41.752C436.254 47.368 431.694 49.624 426.75 49.624ZM454.83 49.624C447.438 49.624 442.11 44.344 442.11 36.76C442.11 29.224 447.438 23.896 454.83 23.896C462.222 23.896 467.55 29.224 467.55 36.76C467.55 44.344 462.222 49.624 454.83 49.624ZM445.998 36.76C445.998 42.424 449.694 46.216 454.83 46.216C459.966 46.216 463.662 42.424 463.662 36.76C463.662 31.288 459.966 27.304 454.83 27.304C449.694 27.304 445.998 31.288 445.998 36.76ZM483.023 49.624C476.255 49.624 471.407 44.2 471.407 36.808C471.407 29.368 476.399 23.896 483.023 23.896C487.247 23.896 490.175 25.96 491.231 28.648H492.191V13H495.935V49H492.191V44.872H491.183C490.175 47.56 487.247 49.624 483.023 49.624ZM475.247 36.808C475.247 42.616 478.943 46.216 483.839 46.216C489.071 46.216 492.335 41.944 492.335 36.808C492.335 30.664 488.447 27.304 483.743 27.304C478.943 27.304 475.247 31.192 475.247 36.808ZM503.188 49V24.52H506.98V49H503.188ZM503.188 19.864V14.968H506.932V19.864H503.188ZM514.671 49V24.52H518.463V28.648H519.423C520.191 26.152 522.687 23.896 526.575 23.896C532.431 23.896 535.695 28.216 535.695 33.112V49H531.903V33.88C531.903 29.992 528.975 27.4 525.471 27.4C521.343 27.4 518.463 30.424 518.463 34.6V49H514.671ZM552.394 59.704C545.674 59.704 540.49 57.352 540.49 52.264C540.49 49.576 542.602 47.176 545.674 47.176H546.154V46.216C544.33 45.688 543.37 44.248 543.37 42.472C543.37 40.744 544.426 39.496 545.434 38.872C543.706 37.384 542.65 35.224 542.65 32.536C542.65 27.112 546.874 23.896 552.25 23.896C553.402 23.896 554.554 24.088 555.61 24.472L564.634 24.04V27.592H558.298V28.552C560.17 29.128 561.61 31.048 561.61 33.4C561.61 38.248 557.386 41.272 552.25 41.272C550.906 41.272 549.562 41.032 548.314 40.6C547.738 40.792 547.018 41.416 547.018 42.472C547.018 43.864 548.362 44.488 549.706 44.488H557.194C561.85 44.488 565.018 47.224 565.018 51.64C565.018 58.408 557.434 59.704 552.394 59.704ZM544.33 51.688C544.33 55.384 548.41 56.296 552.394 56.296C556.906 56.296 561.178 55.288 561.178 51.64C561.178 49.48 559.354 47.896 556.378 47.896H548.746C546.01 47.896 544.33 49.528 544.33 51.688ZM546.346 32.536C546.346 35.704 548.65 38.008 552.25 38.008C555.802 38.008 558.154 35.704 558.154 32.536C558.154 29.464 555.802 27.112 552.25 27.112C548.65 27.112 546.346 29.464 546.346 32.536ZM593.768 49.624C588.008 49.624 584.552 46.456 583.496 42.184L587 41.224C587.816 44.584 590.6 46.264 593.96 46.264C597.896 46.264 600.152 44.584 600.152 42.28C600.152 40.36 598.856 39.208 596.072 38.584L591.992 37.672C588.344 36.856 585.272 35.176 585.272 30.808C585.272 26.92 588.584 23.896 594.248 23.896C599.048 23.896 602.744 26.488 603.704 30.856L600.296 31.816C599.816 29.032 597.416 27.208 594.248 27.208C590.936 27.208 588.776 28.792 588.776 30.808C588.776 32.728 590.216 33.736 592.904 34.36L597.032 35.32C600.872 36.232 603.8 38.152 603.8 42.28C603.8 46.648 599.768 49.624 593.768 49.624ZM618.445 49C615.229 49 612.589 46.936 612.589 42.952V27.688H608.365V24.52H612.685V18.952H616.333V24.52H624.013V27.688H616.333V42.952C616.333 44.92 617.533 45.688 619.021 45.688H623.677V49H618.445ZM637.572 49.624C632.148 49.624 628.596 46.36 628.596 41.752C628.596 37.144 632.196 34.12 637.476 34.12H645.828V33.352C645.828 30.04 643.476 27.208 639.204 27.208C635.412 27.208 633.3 29.608 632.916 31.912L629.604 30.952C630.516 26.776 634.068 23.896 639.204 23.896C646.068 23.896 649.572 28.408 649.572 33.352V44.632C649.572 45.544 650.004 45.832 650.772 45.832H651.588V49H650.052C647.508 49 646.308 47.416 646.308 45.496V44.584H645.348C644.484 47.608 641.748 49.624 637.572 49.624ZM632.388 41.752C632.388 44.728 635.076 46.36 638.004 46.36C643.812 46.36 645.828 41.848 645.828 38.104V37.384H637.812C634.116 37.384 632.388 39.256 632.388 41.752ZM656.89 49V24.52H660.682V28.648H661.642C662.41 26.152 664.906 23.896 668.794 23.896C674.65 23.896 677.914 28.216 677.914 33.112V49H674.122V33.88C674.122 29.992 671.194 27.4 667.69 27.4C663.562 27.4 660.682 30.424 660.682 34.6V49H656.89ZM694.804 49.624C688.036 49.624 683.188 44.2 683.188 36.808C683.188 29.368 688.18 23.896 694.804 23.896C699.028 23.896 701.956 25.96 703.012 28.648H703.972V13H707.716V49H703.972V44.872H702.964C701.956 47.56 699.028 49.624 694.804 49.624ZM687.028 36.808C687.028 42.616 690.724 46.216 695.62 46.216C700.852 46.216 704.116 41.944 704.116 36.808C704.116 30.664 700.228 27.304 695.524 27.304C690.724 27.304 687.028 31.192 687.028 36.808ZM722.697 49.624C717.273 49.624 713.721 46.36 713.721 41.752C713.721 37.144 717.321 34.12 722.601 34.12H730.953V33.352C730.953 30.04 728.601 27.208 724.329 27.208C720.537 27.208 718.425 29.608 718.041 31.912L714.729 30.952C715.641 26.776 719.193 23.896 724.329 23.896C731.193 23.896 734.697 28.408 734.697 33.352V44.632C734.697 45.544 735.129 45.832 735.897 45.832H736.713V49H735.177C732.633 49 731.433 47.416 731.433 45.496V44.584H730.473C729.609 47.608 726.873 49.624 722.697 49.624ZM717.513 41.752C717.513 44.728 720.201 46.36 723.129 46.36C728.937 46.36 730.953 41.848 730.953 38.104V37.384H722.937C719.241 37.384 717.513 39.256 717.513 41.752ZM742.015 49V24.52H745.759V29.656H746.767C747.391 27.832 749.551 24.04 754.927 24.04V28.12H754.495C748.447 28.12 745.807 32.44 745.807 37.144V49H742.015ZM769.476 49.624C762.708 49.624 757.86 44.2 757.86 36.808C757.86 29.368 762.852 23.896 769.476 23.896C773.7 23.896 776.628 25.96 777.684 28.648H778.644V13H782.388V49H778.644V44.872H777.636C776.628 47.56 773.7 49.624 769.476 49.624ZM761.7 36.808C761.7 42.616 765.396 46.216 770.292 46.216C775.524 46.216 778.788 41.944 778.788 36.808C778.788 30.664 774.9 27.304 770.196 27.304C765.396 27.304 761.7 31.192 761.7 36.808ZM798.425 49.624C792.665 49.624 789.209 46.456 788.153 42.184L791.657 41.224C792.473 44.584 795.257 46.264 798.617 46.264C802.553 46.264 804.809 44.584 804.809 42.28C804.809 40.36 803.513 39.208 800.729 38.584L796.649 37.672C793.001 36.856 789.929 35.176 789.929 30.808C789.929 26.92 793.241 23.896 798.905 23.896C803.705 23.896 807.401 26.488 808.361 30.856L804.953 31.816C804.473 29.032 802.073 27.208 798.905 27.208C795.593 27.208 793.433 28.792 793.433 30.808C793.433 32.728 794.873 33.736 797.561 34.36L801.689 35.32C805.529 36.232 808.457 38.152 808.457 42.28C808.457 46.648 804.425 49.624 798.425 49.624Z" fill="white"/>
<path d="M820.323 48.56V43.632L843.043 34.736V33.392L820.323 24.496V19.568L847.779 30.64V37.488L820.323 48.56Z" fill="#6C6967"/>
<path d="M148.782 164.656C150.195 161.877 153.049 160.127 156.167 160.127H577.291C583.476 160.127 587.48 166.658 584.676 172.17L577.531 186.216C576.117 188.995 573.263 190.745 570.145 190.745H149.022C142.837 190.745 138.832 184.214 141.636 178.702L148.782 164.656Z" fill="#9CA2FA"/>
<path d="M136.321 202.784C137.735 200.005 140.589 198.255 143.706 198.255H888.329C894.514 198.255 898.519 204.785 895.715 210.298L888.569 224.344C887.156 227.123 884.302 228.873 881.184 228.873H136.561C130.376 228.873 126.371 222.342 129.176 216.829L136.321 202.784Z" fill="#FE856B"/>
<path d="M66.9767 244.668C66.9767 240.092 70.6866 236.382 75.2629 236.382H111.738C114.856 236.382 117.71 238.132 119.123 240.911L126.269 254.957C129.073 260.469 125.068 267 118.883 267H75.2629C70.6866 267 66.9767 263.29 66.9767 258.714V244.668Z" fill="#76A563"/>
<path d="M16.8566 123.775C18.1406 120.681 21.1605 118.665 24.5097 118.665H610.19C616.098 118.665 620.108 124.671 617.843 130.128L609.244 150.843C607.96 153.937 604.941 155.953 601.591 155.953H15.9111C10.003 155.953 5.99301 149.947 8.25797 144.49L16.8566 123.775Z" fill="#F4E144"/>
<path d="M635.958 123.775C637.242 120.681 640.262 118.665 643.611 118.665H966.173C972.081 118.665 976.091 124.671 973.826 130.128L965.228 150.843C963.944 153.937 960.924 155.953 957.575 155.953H635.012C629.104 155.953 625.094 149.947 627.359 144.49L635.958 123.775Z" fill="#C76CD8"/>
<path d="M1105.5 126.951C1105.5 122.375 1101.79 118.665 1097.21 118.665H999.594C996.245 118.665 993.225 120.681 991.941 123.775L983.342 144.49C981.077 149.947 985.087 155.953 990.995 155.953H1097.21C1101.79 155.953 1105.5 152.243 1105.5 147.667V126.951Z" fill="#FF5D5D"/>
</g>
<defs>
<clipPath id="clip0_152_305">
<rect width="1109" height="267" fill="white"/>
</clipPath>
</defs>
</svg>
