<svg width="1109" height="267" viewBox="0 0 1109 267" fill="none" xmlns="http://www.w3.org/2000/svg">
<g clip-path="url(#clip0_156_16)">
<rect width="1109" height="267" fill="#181818"/>
<path d="M23.8347 44.92L3.24269 36.616V31.48L23.8347 23.176V26.872L6.79469 33.544V34.552L23.8347 41.224V44.92ZM26.7364 54.184V53.704L40.8004 13H44.7844V13.48L30.7204 54.184H26.7364Z" fill="#6C6967"/>
<path d="M60.5627 49V15.4H80.1947V18.904H64.4027V30.136H78.5627V33.592H64.4027V45.544H80.7227V49H60.5627ZM87.2177 49V24.52H91.0097V28.648H91.9697C92.7377 26.152 95.2337 23.896 99.1217 23.896C104.978 23.896 108.242 28.216 108.242 33.112V49H104.45V33.88C104.45 29.992 101.522 27.4 98.0177 27.4C93.8897 27.4 91.0097 30.424 91.0097 34.6V49H87.2177ZM117.74 49V27.832H112.796V24.52H117.788V19.048C117.788 15.064 120.428 13 123.644 13H127.436V16.312H124.22C122.732 16.312 121.532 17.08 121.532 19.048V24.52H128.828V27.832H121.532V49H117.74ZM144.658 49.624C137.266 49.624 131.938 44.344 131.938 36.76C131.938 29.224 137.266 23.896 144.658 23.896C152.05 23.896 157.378 29.224 157.378 36.76C157.378 44.344 152.05 49.624 144.658 49.624ZM135.826 36.76C135.826 42.424 139.522 46.216 144.658 46.216C149.794 46.216 153.49 42.424 153.49 36.76C153.49 31.288 149.794 27.304 144.658 27.304C139.522 27.304 135.826 31.288 135.826 36.76ZM163.155 49V24.52H166.899V29.656H167.907C168.531 27.832 170.691 24.04 176.067 24.04V28.12H175.635C169.587 28.12 166.947 32.44 166.947 37.144V49H163.155ZM191.625 49.624C184.281 49.624 179.001 44.152 179.001 36.76C179.001 29.368 184.425 23.896 191.625 23.896C196.233 23.896 200.745 26.152 202.713 31.096L199.497 32.776C198.585 30.088 195.657 27.4 191.625 27.4C186.537 27.4 182.889 31.336 182.889 36.76C182.889 42.424 186.729 46.12 191.625 46.12C195.177 46.12 198.633 44.248 200.073 40.216L203.145 41.752C201.129 47.368 196.569 49.624 191.625 49.624ZM219.129 49.624C211.689 49.624 206.985 44.104 206.985 36.52C206.985 28.648 212.553 23.896 218.985 23.896C226.473 23.896 230.841 29.512 230.457 36.28L230.361 37.96H210.729C211.209 42.856 214.041 46.216 219.129 46.216C222.441 46.216 225.033 44.872 226.761 42.04L229.593 43.864C227.721 47.32 223.929 49.624 219.129 49.624ZM210.825 34.6H226.761C226.761 30.424 223.497 27.208 218.985 27.208C214.233 27.208 211.449 30.424 210.825 34.6ZM256.497 49L247.281 25V24.52H251.169L259.185 45.832H260.193L268.401 24.52H272.385V25L262.833 49L258.849 59.08H254.961V58.6L258.753 49H256.497ZM287.768 49.624C280.376 49.624 275.048 44.344 275.048 36.76C275.048 29.224 280.376 23.896 287.768 23.896C295.16 23.896 300.488 29.224 300.488 36.76C300.488 44.344 295.16 49.624 287.768 49.624ZM278.936 36.76C278.936 42.424 282.632 46.216 287.768 46.216C292.904 46.216 296.6 42.424 296.6 36.76C296.6 31.288 292.904 27.304 287.768 27.304C282.632 27.304 278.936 31.288 278.936 36.76ZM314.905 49.624C309.097 49.624 305.785 45.304 305.785 40.408V24.52H309.577V39.64C309.577 43.864 312.505 46.12 316.009 46.12C320.137 46.12 323.017 43.096 323.017 38.92V24.52H326.809V49H323.017V44.872H322.057C321.049 47.896 318.793 49.624 314.905 49.624ZM334.015 49V24.52H337.759V29.656H338.767C339.391 27.832 341.551 24.04 346.927 24.04V28.12H346.495C340.447 28.12 337.807 32.44 337.807 37.144V49H334.015ZM374.768 49.624C369.008 49.624 365.552 46.456 364.496 42.184L368 41.224C368.816 44.584 371.6 46.264 374.96 46.264C378.896 46.264 381.152 44.584 381.152 42.28C381.152 40.36 379.856 39.208 377.072 38.584L372.992 37.672C369.344 36.856 366.272 35.176 366.272 30.808C366.272 26.92 369.584 23.896 375.248 23.896C380.048 23.896 383.744 26.488 384.704 30.856L381.296 31.816C380.816 29.032 378.416 27.208 375.248 27.208C371.936 27.208 369.776 28.792 369.776 30.808C369.776 32.728 371.216 33.736 373.904 34.36L378.032 35.32C381.872 36.232 384.8 38.152 384.8 42.28C384.8 46.648 380.768 49.624 374.768 49.624ZM399.445 49C396.229 49 393.589 46.936 393.589 42.952V27.688H389.365V24.52H393.685V18.952H397.333V24.52H405.013V27.688H397.333V42.952C397.333 44.92 398.533 45.688 400.021 45.688H404.677V49H399.445ZM418.572 49.624C413.148 49.624 409.596 46.36 409.596 41.752C409.596 37.144 413.196 34.12 418.476 34.12H426.828V33.352C426.828 30.04 424.476 27.208 420.204 27.208C416.412 27.208 414.3 29.608 413.916 31.912L410.604 30.952C411.516 26.776 415.068 23.896 420.204 23.896C427.068 23.896 430.572 28.408 430.572 33.352V44.632C430.572 45.544 431.004 45.832 431.772 45.832H432.588V49H431.052C428.508 49 427.308 47.416 427.308 45.496V44.584H426.348C425.484 47.608 422.748 49.624 418.572 49.624ZM413.388 41.752C413.388 44.728 416.076 46.36 419.004 46.36C424.812 46.36 426.828 41.848 426.828 38.104V37.384H418.812C415.116 37.384 413.388 39.256 413.388 41.752ZM437.89 49V24.52H441.682V28.648H442.642C443.41 26.152 445.906 23.896 449.794 23.896C455.65 23.896 458.914 28.216 458.914 33.112V49H455.122V33.88C455.122 29.992 452.194 27.4 448.69 27.4C444.562 27.4 441.682 30.424 441.682 34.6V49H437.89ZM475.804 49.624C469.036 49.624 464.188 44.2 464.188 36.808C464.188 29.368 469.18 23.896 475.804 23.896C480.028 23.896 482.956 25.96 484.012 28.648H484.972V13H488.716V49H484.972V44.872H483.964C482.956 47.56 480.028 49.624 475.804 49.624ZM468.028 36.808C468.028 42.616 471.724 46.216 476.62 46.216C481.852 46.216 485.116 41.944 485.116 36.808C485.116 30.664 481.228 27.304 476.524 27.304C471.724 27.304 468.028 31.192 468.028 36.808ZM503.697 49.624C498.273 49.624 494.721 46.36 494.721 41.752C494.721 37.144 498.321 34.12 503.601 34.12H511.953V33.352C511.953 30.04 509.601 27.208 505.329 27.208C501.537 27.208 499.425 29.608 499.041 31.912L495.729 30.952C496.641 26.776 500.193 23.896 505.329 23.896C512.193 23.896 515.697 28.408 515.697 33.352V44.632C515.697 45.544 516.129 45.832 516.897 45.832H517.713V49H516.177C513.633 49 512.433 47.416 512.433 45.496V44.584H511.473C510.609 47.608 507.873 49.624 503.697 49.624ZM498.513 41.752C498.513 44.728 501.201 46.36 504.129 46.36C509.937 46.36 511.953 41.848 511.953 38.104V37.384H503.937C500.241 37.384 498.513 39.256 498.513 41.752ZM523.015 49V24.52H526.759V29.656H527.767C528.391 27.832 530.551 24.04 535.927 24.04V28.12H535.495C529.447 28.12 526.807 32.44 526.807 37.144V49H523.015ZM550.476 49.624C543.708 49.624 538.86 44.2 538.86 36.808C538.86 29.368 543.852 23.896 550.476 23.896C554.7 23.896 557.628 25.96 558.684 28.648H559.644V13H563.388V49H559.644V44.872H558.636C557.628 47.56 554.7 49.624 550.476 49.624ZM542.7 36.808C542.7 42.616 546.396 46.216 551.292 46.216C556.524 46.216 559.788 41.944 559.788 36.808C559.788 30.664 555.9 27.304 551.196 27.304C546.396 27.304 542.7 31.192 542.7 36.808ZM579.425 49.624C573.665 49.624 570.209 46.456 569.153 42.184L572.657 41.224C573.473 44.584 576.257 46.264 579.617 46.264C583.553 46.264 585.809 44.584 585.809 42.28C585.809 40.36 584.513 39.208 581.729 38.584L577.649 37.672C574.001 36.856 570.929 35.176 570.929 30.808C570.929 26.92 574.241 23.896 579.905 23.896C584.705 23.896 588.401 26.488 589.361 30.856L585.953 31.816C585.473 29.032 583.073 27.208 579.905 27.208C576.593 27.208 574.433 28.792 574.433 30.808C574.433 32.728 575.873 33.736 578.561 34.36L582.689 35.32C586.529 36.232 589.457 38.152 589.457 42.28C589.457 46.648 585.425 49.624 579.425 49.624Z" fill="white"/>
<path d="M601.323 48.56V43.632L624.043 34.736V33.392L601.323 24.496V19.568L628.779 30.64V37.488L601.323 48.56Z" fill="#6C6967"/>
<path d="M148.782 164.656C150.195 161.877 153.049 160.127 156.167 160.127H577.291C583.476 160.127 587.48 166.658 584.676 172.17L577.531 186.216C576.117 188.995 573.263 190.745 570.145 190.745H149.022C142.837 190.745 138.832 184.215 141.636 178.702L148.782 164.656Z" fill="#9CA2FA"/>
<path d="M136.321 202.784C137.735 200.005 140.589 198.255 143.706 198.255H888.329C894.514 198.255 898.519 204.785 895.715 210.298L888.569 224.344C887.156 227.123 884.302 228.873 881.184 228.873H136.561C130.376 228.873 126.371 222.342 129.176 216.829L136.321 202.784Z" fill="#FE856B"/>
<path d="M66.9767 244.668C66.9767 240.092 70.6866 236.382 75.2629 236.382H111.738C114.856 236.382 117.71 238.132 119.123 240.911L126.269 254.957C129.073 260.469 125.068 267 118.883 267H75.2629C70.6866 267 66.9767 263.29 66.9767 258.714V244.668Z" fill="#76A563"/>
<path d="M16.8566 123.775C18.1406 120.681 21.1605 118.665 24.5097 118.665H610.19C616.098 118.665 620.108 124.671 617.843 130.128L609.244 150.843C607.96 153.937 604.941 155.953 601.591 155.953H15.9111C10.003 155.953 5.99301 149.947 8.25797 144.49L16.8566 123.775Z" fill="#F4E144"/>
<path d="M635.958 123.775C637.242 120.681 640.262 118.665 643.611 118.665H966.173C972.081 118.665 976.091 124.671 973.826 130.128L965.228 150.843C963.944 153.937 960.924 155.953 957.575 155.953H635.012C629.104 155.953 625.094 149.947 627.359 144.49L635.958 123.775Z" fill="#C76CD8"/>
<path d="M1105.5 126.951C1105.5 122.375 1101.79 118.665 1097.21 118.665H999.594C996.245 118.665 993.225 120.681 991.941 123.775L983.342 144.49C981.077 149.947 985.087 155.953 990.995 155.953H1097.21C1101.79 155.953 1105.5 152.243 1105.5 147.667V126.951Z" fill="#FF5D5D"/>
</g>
<defs>
<clipPath id="clip0_156_16">
<rect width="1109" height="267" fill="white"/>
</clipPath>
</defs>
</svg>
