<svg width="450" height="71" viewBox="0 0 450 71" fill="none" xmlns="http://www.w3.org/2000/svg">
<path d="M16.0767 71H0V0H16.0767V5.52481H5.60164V65.4752H16.0767V71Z" fill="#9CA2FA"/>
<path d="M100.17 71H84.0935V65.4752H94.5696V5.52481H84.0935V0H100.17V71Z" fill="#9CA2FA"/>
<path d="M26.743 12.0488L25.1971 18.213L39.1097 32.1043H17.9465L16.5404 37.6609H43.5926L45.4476 30.5609L26.743 12.0488Z" fill="#9CA2FA"/>
<path d="M73.7364 57.7164L75.2822 51.5522L61.3697 37.6609L82.5328 37.6609L83.9389 32.1044L56.8868 32.1043L55.0318 39.2043L73.7364 57.7164Z" fill="#9CA2FA"/>
<path d="M53.4859 10.8043L40.8101 60.1957H46.6843L59.3601 10.8043H53.4859Z" fill="#9CA2FA"/>
<path d="M443.587 0H450V57.2323H443.587V52.1895H443.426C441.021 55.3112 437.173 58.353 430.599 58.353C420.338 58.353 412.161 50.2684 412.161 36.8208C412.161 23.3732 420.338 15.2886 430.599 15.2886C437.173 15.2886 441.021 18.1703 443.426 21.6922H443.587V0ZM431.241 52.7498C438.857 52.7498 443.587 46.4262 443.587 36.8208C443.587 27.2154 438.857 20.8918 431.241 20.8918C422.823 20.8918 418.574 28.8163 418.574 36.8208C418.574 44.8253 422.823 52.7498 431.241 52.7498Z" fill="white"/>
<path d="M392.172 15.2877C399.627 15.2877 405.88 19.37 405.88 28.7353V57.2314H399.467V30.3362C399.467 25.0532 396.982 20.8908 390.568 20.8908C383.353 20.8908 378.543 25.4534 378.543 31.777V57.2314H372.13V16.4083H378.543V21.2911H378.704C380.868 18.4094 385.197 15.2877 392.172 15.2877Z" fill="white"/>
<path d="M359.305 8.48502C357.542 8.48502 355.297 7.12425 355.297 4.64285C355.297 2.16145 357.542 0.800679 359.305 0.800679C361.149 0.800679 363.314 2.16145 363.314 4.64285C363.314 7.12425 361.149 8.48502 359.305 8.48502ZM356.099 16.4095H362.512V57.2326H356.099V16.4095Z" fill="white"/>
<path d="M334.456 15.2877C342.714 15.2877 346.722 20.1704 346.722 28.7353V57.2314H340.309V30.3362C340.309 25.0532 339.266 20.8908 332.853 20.8908C326.44 20.8908 322.431 25.4534 322.431 31.777V57.2314H316.018V30.3362C316.018 25.0532 314.976 20.8908 308.562 20.8908C302.149 20.8908 298.14 25.4534 298.14 31.777V57.2314H291.727V16.4083H298.14V21.2911H298.301C300.465 18.4094 303.993 15.2877 310.166 15.2877C316.018 15.2877 319.385 17.7691 321.068 22.3316H321.229C324.035 18.4895 328.283 15.2877 334.456 15.2877Z" fill="white"/>
<path d="M252.506 0H258.92V33.9392L277.679 16.4093H285.696L269.742 31.5378L287.379 57.2323H279.763L265.253 35.2999L258.92 41.1432V57.2323H252.506V0Z" fill="white"/>
<path d="M239.956 31.1366C239.635 26.6541 236.589 20.8908 228.412 20.8908C218.712 20.8908 215.024 29.1355 215.024 36.8198C215.024 44.5042 218.712 52.7488 228.412 52.7488C236.669 52.7488 239.635 47.0656 239.956 42.1829H246.369C245.808 51.4681 238.513 58.352 228.412 58.352C216.467 58.352 208.611 49.6271 208.611 36.8198C208.611 24.0126 216.467 15.2877 228.412 15.2877C238.513 15.2877 245.407 22.0115 246.369 31.1366H239.956Z" fill="white"/>
<path d="M195.079 26.8142C195.079 23.6124 193.316 20.8908 186.742 20.8908C178.966 20.8908 176.4 23.1321 175.999 29.0554H169.586C169.987 21.211 174.877 15.2877 186.742 15.2877C194.518 15.2877 201.493 18.3294 201.493 28.1749V48.0262C201.493 51.228 202.054 52.989 206.142 52.5087V56.9912C204.459 57.5515 203.577 57.6316 202.375 57.6316C198.527 57.6316 196.202 56.591 195.079 52.1085H194.919C192.354 55.9506 187.784 58.352 181.05 58.352C172.793 58.352 167.582 53.6293 167.582 46.7454C167.582 37.4602 174.476 35.0588 185.058 33.0577C191.953 31.777 195.079 30.8965 195.079 26.8142ZM181.691 52.7488C189.307 52.7488 195.079 49.3069 195.079 41.4625V34.6586C193.877 35.8593 189.949 36.9799 185.62 37.8604C177.683 39.5414 173.995 41.5425 173.995 46.4253C173.995 50.4275 176.4 52.7488 181.691 52.7488Z" fill="white"/>
<path d="M145.083 15.2877C155.184 15.2877 163.361 23.3722 163.361 36.8198C163.361 50.2674 155.184 58.352 145.083 58.352C138.349 58.352 134.501 55.4704 132.096 51.9484H131.935V70.9991H125.522V16.4083H131.935V21.4512H132.096C134.501 18.3294 138.349 15.2877 145.083 15.2877ZM144.281 52.7488C152.699 52.7488 156.948 44.8244 156.948 36.8198C156.948 28.8153 152.699 20.8908 144.281 20.8908C136.665 20.8908 131.935 27.2144 131.935 36.8198C131.935 46.4253 136.665 52.7488 144.281 52.7488Z" fill="white"/>
</svg>
